<?xml version="1.0" encoding="utf-8"?>
<!-- Generator: Adobe Illustrator 20.1.0, SVG Export Plug-In . SVG Version: 6.00 Build 0)  -->
<svg version="1.1" id="Layer_1" xmlns="http://www.w3.org/2000/svg" xmlns:xlink="http://www.w3.org/1999/xlink" x="0px" y="0px"
	 viewBox="0 0 28.9 28.9" style="enable-background:new 0 0 28.9 28.9;" xml:space="preserve">
<path style="fill:#3692FB;" d="M6.5,0h15.9c3.6,0,6.5,2.9,6.5,6.5v15.9c0,3.6-2.9,6.5-6.5,6.5H6.5C2.9,28.9,0,26,0,22.4V6.5
	C0,2.9,2.9,0,6.5,0z M14.4,6.4c-4.2-0.2-7.8,3.1-8,7.4c0,0,0,0,0,0c0,2.3,1.1,4.4,3,5.8v2.8l2.7-1.5c0.7,0.2,1.5,0.3,2.3,0.3
	c4.2,0.2,7.8-3.1,8-7.4c0,0,0,0,0,0C22.3,9.6,18.7,6.3,14.4,6.4C14.4,6.4,14.4,6.4,14.4,6.4z M15.2,16.4l-2-2.2l-4,2.2l4.4-4.6
	l2.1,2.2l3.9-2.2L15.2,16.4z"/>
</svg>
