<?xml version="1.0" encoding="utf-8"?>
<!-- Generator: Adobe Illustrator 20.1.0, SVG Export Plug-In . SVG Version: 6.00 Build 0)  -->
<svg version="1.1" id="Layer_1" xmlns="http://www.w3.org/2000/svg" xmlns:xlink="http://www.w3.org/1999/xlink" x="0px" y="0px"
	 viewBox="0 0 512 512" style="enable-background:new 0 0 512 512;" xml:space="preserve">
<path style="fill:#5EBEE1;" d="M397.1,0H114.9C51.5,0,0,51.5,0,114.9v282.2C0,460.5,51.5,512,114.9,512h282.2
	c63.4,0,114.9-51.4,114.9-114.9V114.9C512,51.5,460.5,0,397.1,0z M401.5,149.6L356,367.4c-2.1,10.2-14.1,14.8-22.5,8.6l-68.8-50.5
	l-35.1,35.8c-6.1,6.3-16.8,3.8-19.4-4.6l-25.3-80.3l-67.8-20c-8.9-2.6-9.4-15-0.8-18.4l266.8-103.9v0
	C393.3,130.1,403.8,139,401.5,149.6z M345.9,177.1l-146.3,90.8c-2.6,1.6-3.8,4.7-2.9,7.6l19.6,63.3c0.4,1.4,2.3,1.2,2.5-0.2
	l4.8-42.4c0.2-1.6,1-3.1,2.2-4.2l123.9-109.6C352.7,179.8,349.2,175.2,345.9,177.1z"/>
</svg>
