<?xml version="1.0" encoding="utf-8"?>
<!-- Generator: Adobe Illustrator 20.1.0, SVG Export Plug-In . SVG Version: 6.00 Build 0)  -->
<svg version="1.1" id="Layer_1" xmlns="http://www.w3.org/2000/svg" xmlns:xlink="http://www.w3.org/1999/xlink" x="0px" y="0px"
	 viewBox="0 0 28.9 28.9" style="enable-background:new 0 0 28.9 28.9;" xml:space="preserve">
<path style="fill:#7D3DAF;" d="M6.5,0h15.9c3.6,0,6.5,2.9,6.5,6.5v15.9c0,3.6-2.9,6.5-6.5,6.5H6.5C2.9,28.9,0,26,0,22.4V6.5
	C0,2.9,2.9,0,6.5,0z M21.9,10.3c-0.6-1.7-1.9-3-3.6-3.5c-2.5-0.5-5-0.5-7.5,0C9,7.3,7.6,8.6,7.1,10.3c-0.5,2.1-0.5,4.3,0,6.4
	c0.5,1.6,1.8,2.9,3.4,3.4v1.7c0,0.4,0.3,0.7,0.7,0.7c0.2,0,0.4-0.1,0.5-0.2l1.7-1.8h1.1c1.3,0,2.5-0.1,3.8-0.4
	c1.7-0.5,3-1.8,3.6-3.5C22.3,14.5,22.3,12.4,21.9,10.3z M20.5,16.3c-0.4,1.2-1.4,2.1-2.5,2.4c-1.3,0.3-2.7,0.4-4,0.3c0,0,0,0-0.1,0
	l-1.3,1.4l-1.3,1.4c-0.1,0.1-0.2,0.1-0.2,0c0,0,0-0.1,0-0.1v-2.8c0,0,0-0.1-0.1-0.1c-1.2-0.4-2.1-1.3-2.5-2.4
	c-0.4-1.9-0.4-3.8,0-5.7C8.9,9.4,9.8,8.5,11,8.1c2.3-0.4,4.7-0.4,7,0c1.2,0.4,2.1,1.3,2.5,2.4C20.9,12.5,20.9,14.4,20.5,16.3
	L20.5,16.3z M17.9,15.8c-0.2-0.2-0.4-0.3-0.6-0.5c-0.2-0.2-0.5-0.3-0.7-0.5c-0.2-0.2-0.5-0.2-0.7,0c-0.2,0.2-0.3,0.5-0.6,0.6
	c-0.2,0-0.4,0-0.5-0.1c-1-0.4-1.7-1.2-2-2.2c-0.1-0.1-0.1-0.3,0-0.4c0-0.1,0.1-0.1,0.2-0.2l0.2-0.2c0.3-0.2,0.4-0.6,0.2-0.9
	c-0.3-0.5-0.6-0.9-1-1.4C12,9.9,11.8,9.8,11.6,10c-0.3,0.1-0.6,0.3-0.8,0.6c-0.3,0.3-0.4,0.6-0.3,1c0.2,0.4,0.3,0.8,0.5,1.2
	c0.4,0.8,0.9,1.5,1.4,2.2c1.1,1.1,2.3,2,3.8,2.5c0.1,0.1,0.3,0.1,0.4,0.1c0.1,0,0.3-0.1,0.4-0.1c0.4-0.2,0.7-0.6,0.9-1
	C18.1,16.3,18.1,16,17.9,15.8z M14.5,9.5h-0.1c-0.1,0-0.2,0.1-0.2,0.2c0,0,0,0,0,0c0,0.2,0.2,0.2,0.3,0.2s0.4,0,0.6,0.1
	c1.4,0.3,2.5,1.4,2.7,2.8c0,0.3,0,0.5,0.1,0.8s0.1,0.3,0.2,0.3c0.1,0,0.2-0.1,0.2-0.2c0,0,0,0,0,0c0-0.3,0-0.6-0.1-1
	C17.9,10.8,16.3,9.5,14.5,9.5z M16.9,13.1c0,0.1,0,0.1,0,0.2c0,0.1,0.2,0.2,0.3,0.1c0.1,0,0.1-0.1,0.1-0.1c0,0,0-0.1,0-0.1v-0.3
	v-0.1c-0.1-0.8-0.6-1.6-1.4-1.9c-0.4-0.2-0.8-0.3-1.2-0.3c-0.1,0-0.2,0.1-0.2,0.2c0,0,0,0,0,0c0,0.1,0.1,0.2,0.2,0.2c0,0,0,0,0,0
	l0.4,0.1c0.2,0,0.5,0.1,0.7,0.2c0.4,0.2,0.7,0.5,0.9,0.8C16.8,12.4,16.9,12.8,16.9,13.1z M16.3,13c0-0.1,0-0.1,0-0.2
	c0-0.7-0.6-1.3-1.3-1.3c0,0,0,0,0,0c-0.1,0-0.2,0.1-0.2,0.2c0,0.1,0,0.2,0.2,0.2c0,0,0,0,0,0c0.1,0,0.2,0,0.4,0.1
	c0.1,0,0.2,0.1,0.2,0.1c0.2,0.1,0.3,0.3,0.3,0.5c0,0.1,0,0.2,0,0.3c0,0.1,0.1,0.2,0.2,0.2c0,0,0,0,0,0C16.2,13.2,16.3,13.1,16.3,13z
	"/>
</svg>
