<?xml version="1.0" encoding="utf-8"?>
<!-- Generator: Adobe Illustrator 20.1.0, SVG Export Plug-In . SVG Version: 6.00 Build 0)  -->
<svg version="1.1" id="Layer_1" xmlns="http://www.w3.org/2000/svg" xmlns:xlink="http://www.w3.org/1999/xlink" x="0px" y="0px"
	 viewBox="0 0 28.9 28.9" style="enable-background:new 0 0 28.9 28.9;" xml:space="preserve">
<path style="fill:#189D0E;" d="M28.9,6.5v15.9c0,3.6-2.9,6.5-6.5,6.5H6.5C2.9,28.9,0,26,0,22.4V6.5C0,2.9,2.9,0,6.5,0h15.9
	C26,0,28.9,2.9,28.9,6.5z M10.7,20.9c0.1,0,0.3,0,0.4,0c2.1,1.1,4.6,1,6.7-0.1c3.6-1.9,4.9-6.3,3-9.9S14.6,6,11,7.9s-4.9,6.3-3,9.9
	c0,0.1,0,0.3,0,0.4c-0.2,0.9-0.5,1.8-0.7,2.7l-0.2,0.9C7.5,21.7,8.8,21.4,10.7,20.9z M9.2,18.5c0.1-0.4,0.1-0.8-0.1-1.2
	c-0.3-0.6-0.6-1.3-0.7-2c-0.5-3.3,1.8-6.5,5.1-7c3.3-0.5,6.5,1.8,7,5.1s-1.8,6.5-5.1,7c-1.4,0.2-2.8,0-4.1-0.8
	c-0.1-0.1-0.3-0.1-0.5-0.1c-0.7,0.2-1.3,0.4-2.1,0.5C9,19.5,9.1,19,9.2,18.5z M16.7,17.9c0.9,0,1.6-0.8,1.5-1.7
	c0-0.2-0.1-0.2-1.6-0.9c-0.4-0.1-0.4,0.1-1,0.8c-0.1,0.1-0.3,0.2-0.4,0.1c-1.1-0.4-2-1.2-2.5-2.2c-0.1-0.1-0.1-0.3,0-0.4
	c0.4-0.4,0.6-0.7,0.4-0.9c-0.2-0.5-0.4-1-0.6-1.4c0-0.1-0.1-0.2-0.2-0.2c-0.3-0.1-0.7-0.1-0.9,0.1c-0.8,0.7-0.9,1.9-0.3,2.8
	c1.6,2.7,3.8,3.8,5.3,3.9C16.5,17.9,16.6,17.9,16.7,17.9z"/>
</svg>
