<svg width="248" height="40" viewBox="0 0 248 40" xmlns="http://www.w3.org/2000/svg">
    <title>
        LOGO2
    </title>
    <g fill="none" fill-rule="evenodd">
        <path d="M155.676 16.016c-.828 0-1.44.246-1.838.74-.398.495-.637 1.156-.717 1.981h4.526c.065-.875-.07-1.547-.402-2.018-.332-.469-.855-.703-1.57-.703zm4.527 8.918c-.488.389-1.149.717-1.985.985-.834.267-1.723.401-2.664.401-1.963 0-3.399-.57-4.307-1.713-.91-1.143-1.364-2.711-1.364-4.703 0-2.138.511-3.743 1.534-4.812 1.022-1.07 2.458-1.605 4.308-1.605.615 0 1.215.083 1.8.243.584.163 1.104.431 1.558.802.454.375.82.875 1.095 1.507.276.633.414 1.42.414 2.357 0 .341-.021.706-.061 1.095-.041.39-.102.794-.182 1.216h-7.302c.049 1.02.313 1.79.791 2.308.478.517 1.253.778 2.324.778.666 0 1.262-.102 1.79-.304.527-.204.928-.41 1.203-.62l1.048 2.065zm-19.494-11.105h1.679v-2.286l3.163-.898v3.184h2.97v2.672h-2.97v4.668c0 .84.085 1.445.256 1.81.17.364.492.546.962.546.324 0 .603-.033.839-.098.235-.064.499-.161.79-.29l.56 2.43c-.438.211-.949.39-1.533.535a7.36 7.36 0 0 1-1.776.218c-1.12 0-1.942-.287-2.47-.862-.528-.576-.791-1.519-.791-2.831V16.5h-1.68v-2.672zm-6.863 9.744c.632 0 1.136-.14 1.508-.424.374-.283.65-.588.829-.911v-1.58a8.742 8.742 0 0 0-1.45-.025 5.294 5.294 0 0 0-1.228.22c-.357.112-.641.275-.852.485-.21.21-.317.478-.317.801 0 .454.135.808.403 1.057.266.252.636.377 1.107.377zm-4.015-9.04c.648-.292 1.419-.523 2.311-.693.892-.17 1.825-.255 2.799-.255.844 0 1.55.102 2.117.303.568.202 1.02.492 1.35.865.333.37.568.817.706 1.335.14.52.208 1.102.208 1.75 0 .714-.024 1.43-.074 2.15-.048.722-.077 1.431-.084 2.127-.009.696.012 1.374.06 2.03.048.656.17 1.276.365 1.858h-2.58l-.511-1.676h-.121c-.324.502-.775.936-1.35 1.3-.577.365-1.32.547-2.228.547a4.346 4.346 0 0 1-1.533-.255 3.318 3.318 0 0 1-1.168-.73 3.329 3.329 0 0 1-.755-1.117 3.726 3.726 0 0 1-.266-1.445c0-.746.165-1.375.498-1.884.333-.511.812-.924 1.436-1.24.624-.316 1.37-.534 2.24-.656.867-.122 1.836-.158 2.907-.11.114-.908.048-1.559-.194-1.956-.245-.397-.788-.595-1.632-.595-.632 0-1.302.064-2.007.195-.706.128-1.286.298-1.74.51l-.754-2.359zm-3.822 7.363c0 .567.073.98.22 1.241.146.259.38.388.704.388.195 0 .386-.015.573-.048a3.46 3.46 0 0 0 .694-.219l.34 2.478c-.26.129-.656.26-1.192.39a7.028 7.028 0 0 1-1.655.194c-.925 0-1.63-.215-2.117-.643-.487-.43-.73-1.138-.73-2.127V8.967h3.163v12.929zm-10.975-5.735c-.617 0-1.1.155-1.448.462-.349.308-.62.769-.815 1.385v5.055c.227.179.474.32.741.426.268.104.62.157 1.06.157.908 0 1.59-.32 2.042-.959.456-.64.683-1.697.683-3.173 0-1.07-.179-1.895-.535-2.478-.357-.582-.933-.875-1.728-.875zm-5.427-2.332h2.31l.366 1.458h.098c.422-.617.92-1.07 1.496-1.362.577-.29 1.278-.438 2.106-.438 1.525 0 2.67.483 3.431 1.447.763.962 1.145 2.516 1.145 4.653 0 1.039-.123 1.973-.366 2.808-.244.835-.604 1.544-1.083 2.126a4.735 4.735 0 0 1-1.752 1.337c-.69.308-1.48.462-2.373.462-.503 0-.917-.037-1.24-.11a4.206 4.206 0 0 1-.974-.352v4.982h-3.164V13.83zm-12.68 12.152v-6.612c0-1.119-.106-1.91-.317-2.382-.21-.468-.648-.705-1.314-.705-.552 0-.997.15-1.339.45-.34.299-.6.684-.778 1.154v8.095h-3.163V13.829h2.457l.365 1.603h.097a5.587 5.587 0 0 1 1.424-1.36c.577-.39 1.32-.585 2.228-.585.778 0 1.415.16 1.91.475.494.317.88.847 1.155 1.592a4.427 4.427 0 0 1 1.436-1.507c.584-.373 1.29-.56 2.117-.56.682 0 1.263.083 1.74.243.48.163.87.441 1.17.839.3.397.522.927.668 1.592.147.663.22 1.506.22 2.528v7.292h-3.164v-6.83c0-.956-.102-1.673-.305-2.152-.202-.477-.652-.717-1.35-.717-.568 0-1.018.154-1.351.462-.333.308-.58.73-.743 1.264v7.973h-3.163zm-14.066-9.965c-.828 0-1.44.246-1.838.74-.398.495-.637 1.156-.718 1.981h4.526c.065-.875-.068-1.547-.401-2.018-.333-.469-.856-.703-1.57-.703zm4.526 8.918c-.487.389-1.148.717-1.983.985-.835.267-1.724.401-2.666.401-1.963 0-3.398-.57-4.307-1.713-.909-1.143-1.363-2.711-1.363-4.703 0-2.138.512-3.743 1.533-4.812 1.023-1.07 2.458-1.605 4.308-1.605.617 0 1.217.083 1.8.243.585.163 1.104.431 1.558.802.455.375.82.875 1.095 1.507.277.633.415 1.42.415 2.357 0 .341-.022.706-.06 1.095-.041.39-.103.794-.184 1.216h-7.301c.05 1.02.313 1.79.791 2.308.479.517 1.253.778 2.324.778.665 0 1.261-.102 1.79-.304.527-.204.928-.41 1.204-.62l1.046 2.065zm-9.651-13.001H72.77v14.048h-3.334V11.933h-4.99V8.967h13.289v2.966z" fill="#2196F3"/>
        <path d="M247.495 16.793c-.503-.178-.958-.268-1.363-.268-.568 0-1.042.15-1.424.45-.381.301-.636.685-.767 1.155v7.85h-3.163V13.83h2.458l.365 1.601h.098c.276-.598.649-1.06 1.12-1.384.469-.323 1.021-.487 1.654-.487.42 0 .9.09 1.436.27l-.414 2.963zm-13.872-.776c-.828 0-1.44.245-1.838.74-.397.494-.636 1.154-.717 1.98h4.527c.064-.875-.07-1.547-.403-2.018-.332-.468-.855-.702-1.57-.702zm4.527 8.917c-.487.388-1.15.717-1.984.985-.836.267-1.724.401-2.665.401-1.963 0-3.399-.57-4.307-1.713-.91-1.143-1.363-2.711-1.363-4.703 0-2.138.51-3.743 1.533-4.812 1.022-1.07 2.458-1.605 4.308-1.605.616 0 1.217.083 1.8.244.585.162 1.104.43 1.558.801.454.375.82.875 1.096 1.507.275.633.413 1.42.413 2.357 0 .341-.02.706-.061 1.095-.04.39-.1.793-.183 1.216h-7.3c.048 1.02.312 1.79.79 2.308.48.517 1.255.779 2.325.779.665 0 1.26-.103 1.788-.305.528-.204.929-.41 1.205-.62l1.047 2.065zm-19.494-11.105h1.679v-2.286l3.164-.898v3.184h2.97v2.672h-2.97v4.668c0 .84.085 1.445.256 1.81.17.364.49.546.96.546.325 0 .605-.033.84-.097.236-.065.499-.162.791-.29l.56 2.428c-.438.212-.95.39-1.533.536a7.367 7.367 0 0 1-1.777.218c-1.119 0-1.942-.287-2.47-.862-.527-.576-.791-1.52-.791-2.832V16.5h-1.68v-2.672zm-3.967 8.797a.906.906 0 0 0-.414-.777 4.97 4.97 0 0 0-1.022-.536 36.415 36.415 0 0 0-1.339-.498 5.022 5.022 0 0 1-1.338-.704 3.87 3.87 0 0 1-1.022-1.142c-.275-.462-.414-1.058-.414-1.787 0-1.199.358-2.114 1.07-2.747.715-.631 1.745-.948 3.092-.948.925 0 1.76.098 2.507.292.746.194 1.33.414 1.752.656l-.706 2.284a16.656 16.656 0 0 0-1.411-.462 6.312 6.312 0 0 0-1.728-.24c-.942 0-1.412.364-1.412 1.091 0 .292.138.526.414.705.276.179.616.345 1.022.499.406.155.852.32 1.338.499.487.177.934.408 1.34.691.404.284.745.652 1.02 1.106.277.455.415 1.038.415 1.75 0 1.232-.394 2.2-1.181 2.905-.787.703-1.967 1.057-3.54 1.057-.86 0-1.668-.11-2.422-.328-.754-.22-1.367-.473-1.838-.765l.877-2.358c.372.21.868.416 1.485.62.616.202 1.249.305 1.897.305.47 0 .848-.09 1.131-.269.285-.178.427-.477.427-.9zm-10.855 3.355v-6.904c0-.987-.142-1.7-.426-2.139-.283-.437-.766-.656-1.447-.656-.6 0-1.108.175-1.521.523a2.91 2.91 0 0 0-.888 1.3v7.876h-3.164V13.829h2.507l.365 1.602h.098c.373-.517.866-.97 1.483-1.36.617-.389 1.412-.584 2.386-.584.6 0 1.135.083 1.605.244.472.162.869.43 1.194.801.323.375.567.88.729 1.52.163.64.244 1.43.244 2.369v7.56h-3.165zm-17.839-6.077c0 .534.05 1.03.147 1.483.097.453.244.85.438 1.19.195.34.45.604.766.79.317.187.695.28 1.133.28.827 0 1.444-.3 1.848-.9.406-.599.609-1.548.609-2.843 0-1.117-.187-2.021-.56-2.71-.372-.688-1.005-1.033-1.897-1.033-.779 0-1.388.293-1.826.875-.438.583-.658 1.539-.658 2.868zm-3.26 0c0-2.058.503-3.642 1.51-4.75 1.005-1.112 2.417-1.667 4.234-1.667.973 0 1.816.154 2.53.462a4.734 4.734 0 0 1 1.777 1.3c.47.56.823 1.236 1.059 2.03.235.794.353 1.668.353 2.625 0 2.056-.5 3.641-1.497 4.75-.997 1.111-2.406 1.666-4.222 1.666-.973 0-1.817-.154-2.531-.462a4.858 4.858 0 0 1-1.79-1.3c-.478-.558-.835-1.235-1.07-2.03-.236-.792-.353-1.668-.353-2.624zm-5.597-2.747l.364-3.378h-.145l-1.047 2.722-3.626 6.344h-1.07l-3.822-6.366-1.07-2.7h-.123l.488 3.353v8.849h-3.164V8.967h3.042l4.551 7.777.802 1.944h.098l.73-1.992 4.308-7.729h3.018v17.014h-3.334v-8.824z" fill="#D84314"/>
        <g fill="#2196F3">
            <path d="M26 24.3a8.3 8.3 0 0 1-8.28-7.76c.914.202 1.841.372 2.78.508a5.6 5.6 0 0 0 7.141 4.307l-.205-3.686 2.82 1.969a5.578 5.578 0 0 0 1.245-2.59 37.938 37.938 0 0 0 2.78-.509A8.3 8.3 0 0 1 26 24.3zM37 13a35.085 35.085 0 0 1-2.988.832 35.677 35.677 0 0 1-8.012.91 35.677 35.677 0 0 1-8.012-.91A35.098 35.098 0 0 1 15.001 13H15v3c0 6.075 4.925 11 11 11 6.073 0 10.997-4.922 11-10.994V13z"/>
            <path d="M44.49 29.578l-5.415-3.78.43 7.723A25.88 25.88 0 0 1 26 37.3c-4.945 0-9.567-1.38-13.503-3.777l.43-7.727-5.417 3.782a26.074 26.074 0 0 1-4.664-6.437 23.676 23.676 0 0 1 2.686-6.474 22.195 22.195 0 0 1-1.127-3.197 22.384 22.384 0 0 1-.542-8.97l7.744 5.408A23.756 23.756 0 0 1 26 5.08a23.756 23.756 0 0 1 14.393 4.828L48.137 4.5a22.387 22.387 0 0 1-.542 8.97 22.192 22.192 0 0 1-1.127 3.197 23.67 23.67 0 0 1 2.686 6.474 26.074 26.074 0 0 1-4.664 6.437m6.262-10.3a26.438 26.438 0 0 0-1.29-2.802 25.173 25.173 0 0 0 1.136-13.622l-.012-.064a24.873 24.873 0 0 0-.72-2.79l-9.472 6.614A26.442 26.442 0 0 0 26 2.38a26.442 26.442 0 0 0-14.394 4.234L2.134 0c-.292.909-.533 1.84-.72 2.79l-.012.064a25.18 25.18 0 0 0 1.136 13.622A26.368 26.368 0 0 0 0 23.466a28.64 28.64 0 0 0 5.266 7.679 28.873 28.873 0 0 0 1.999 1.897l2.657-1.856-.208 3.747A28.575 28.575 0 0 0 26 40a28.575 28.575 0 0 0 16.289-5.069l-.209-3.743 2.655 1.854a28.873 28.873 0 0 0 5.076-5.713 28.658 28.658 0 0 0 2.19-3.862 26.379 26.379 0 0 0-1.249-4.189"/>
        </g>
    </g>
</svg>
