<?xml version="1.0" encoding="UTF-8"?><!DOCTYPE svg PUBLIC "-//W3C//DTD SVG 1.1//EN" "http://www.w3.org/Graphics/SVG/1.1/DTD/svg11.dtd"><svg xmlns="http://www.w3.org/2000/svg"><symbol id="icon-back" viewBox="0 0 26 26">
    <g>
        <path d="M.046 24.418l2.084 2.084 10.837-10.836 10.836 10.836 2.084-2.084-12.92-12.92z"/>
        <path d="M.046 13.418l2.084 2.084L12.967 4.666l10.836 10.836 2.084-2.084L12.967.498z"/>
    </g>
</symbol><symbol id="icon-check" viewBox="0 0 32 32">
    <path d="M22.186 10.52l-8.132 8.132-4.24-4.241L8.4 15.825l5.654 5.655 9.546-9.546z"/>
</symbol><symbol id="icon-close" viewBox="0 0 32 32">
    <path d="M17.459 16.014l8.239-8.194a.992.992 0 0 0 0-1.414 1.016 1.016 0 0 0-1.428 0l-8.232 8.187L7.73 6.284a1.009 1.009 0 0 0-1.428 0 1.015 1.015 0 0 0 0 1.432l8.302 8.303-8.332 8.286a.994.994 0 0 0 0 1.414 1.016 1.016 0 0 0 1.428 0l8.325-8.279 8.275 8.276a1.009 1.009 0 0 0 1.428 0 1.015 1.015 0 0 0 0-1.432l-8.269-8.27z"/>
</symbol><symbol id="icon-messenger" viewBox="0 0 28.9 28.9">
    <path d="M6.5 0h15.9c3.6 0 6.5 2.9 6.5 6.5v15.9c0 3.6-2.9 6.5-6.5 6.5H6.5C2.9 28.9 0 26 0 22.4V6.5C0 2.9 2.9 0 6.5 0zm7.9 6.4c-4.2-.2-7.8 3.1-8 7.4 0 2.3 1.1 4.4 3 5.8v2.8l2.7-1.5c.7.2 1.5.3 2.3.3 4.2.2 7.8-3.1 8-7.4-.1-4.2-3.7-7.5-8-7.4zm.8 10l-2-2.2-4 2.2 4.4-4.6 2.1 2.2 3.9-2.2-4.4 4.6z"/>
</symbol><symbol id="icon-phone" viewBox="0 0 1792 1792">
    <path d="M1600 1240q0 27-10 70.5t-21 68.5q-21 50-122 106-94 51-186 51-27 0-52.5-3.5T1151 1520t-47.5-14.5-55.5-20.5-49-18q-98-35-175-83-128-79-264.5-215.5T344 904q-48-77-83-175-3-9-18-49t-20.5-55.5T208 577t-12.5-57.5T192 467q0-92 51-186 56-101 106-122 25-11 68.5-21t70.5-10q14 0 21 3 18 6 53 76 11 19 30 54t35 63.5 31 53.5q3 4 17.5 25t21.5 35.5 7 28.5q0 20-28.5 50t-62 55-62 53-28.5 46q0 9 5 22.5t8.5 20.5 14 24 11.5 19q76 137 174 235t235 174q2 1 19 11.5t24 14 20.5 8.5 22.5 5q18 0 46-28.5t53-62 55-62 50-28.5q14 0 28.5 7t35.5 21.5 25 17.5q25 15 53.5 31t63.5 35 54 30q70 35 76 53 3 7 3 21z"/>
</symbol><symbol id="icon-play" viewBox="0 0 11 14">
    <path d="M0 0v14l11-7L0 0z"/>
</symbol><symbol id="icon-refresh" viewBox="0 0 30 30">
    <path d="M15 27C8.4 27 3 21.6 3 15c0-.6.4-1 1-1s1 .4 1 1c0 5.5 4.5 10 10 10 2.4 0 4.7-.9 6.5-2.4.4-.4 1.1-.3 1.4.1.4.4.3 1.1-.1 1.4C20.6 26 17.9 27 15 27z"/>
    <path d="M26 16c-.6 0-1-.4-1-1 0-5.5-4.5-10-10-10-2.4 0-4.7.9-6.5 2.4-.4.4-1 .3-1.4-.1s-.3-1.1.1-1.4C9.4 4 12.1 3 15 3c6.6 0 12 5.4 12 12 0 .6-.4 1-1 1z"/>
    <path d="M26 20l-4-6h8z"/>
    <path d="M4 10l4 6H0z"/>
</symbol><symbol id="icon-telegram" viewBox="0 0 512 512">
    <path d="M397.1 0H114.9C51.5 0 0 51.5 0 114.9v282.2C0 460.5 51.5 512 114.9 512h282.2c63.4 0 114.9-51.4 114.9-114.9V114.9C512 51.5 460.5 0 397.1 0zm4.4 149.6L356 367.4c-2.1 10.2-14.1 14.8-22.5 8.6l-68.8-50.5-35.1 35.8c-6.1 6.3-16.8 3.8-19.4-4.6l-25.3-80.3-67.8-20c-8.9-2.6-9.4-15-.8-18.4l266.8-103.9c10.2-4 20.7 4.9 18.4 15.5zm-55.6 27.5l-146.3 90.8c-2.6 1.6-3.8 4.7-2.9 7.6l19.6 63.3c.4 1.4 2.3 1.2 2.5-.2l4.8-42.4c.2-1.6 1-3.1 2.2-4.2l123.9-109.6c3-2.6-.5-7.2-3.8-5.3z"/>
</symbol><symbol id="icon-viber" viewBox="0 0 28.9 28.9">
    <path d="M6.5 0h15.9c3.6 0 6.5 2.9 6.5 6.5v15.9c0 3.6-2.9 6.5-6.5 6.5H6.5C2.9 28.9 0 26 0 22.4V6.5C0 2.9 2.9 0 6.5 0zm15.4 10.3c-.6-1.7-1.9-3-3.6-3.5-2.5-.5-5-.5-7.5 0-1.8.5-3.2 1.8-3.7 3.5-.5 2.1-.5 4.3 0 6.4.5 1.6 1.8 2.9 3.4 3.4v1.7c0 .4.3.7.7.7.2 0 .4-.1.5-.2l1.7-1.8h1.1c1.3 0 2.5-.1 3.8-.4 1.7-.5 3-1.8 3.6-3.5.4-2.1.4-4.2 0-6.3zm-1.4 6c-.4 1.2-1.4 2.1-2.5 2.4-1.3.3-2.7.4-4 .3h-.1l-1.3 1.4-1.3 1.4c-.1.1-.2.1-.2 0v-2.9s0-.1-.1-.1c-1.2-.4-2.1-1.3-2.5-2.4-.4-1.9-.4-3.8 0-5.7.4-1.3 1.3-2.2 2.5-2.6 2.3-.4 4.7-.4 7 0 1.2.4 2.1 1.3 2.5 2.4.4 2 .4 3.9 0 5.8zm-2.6-.5c-.2-.2-.4-.3-.6-.5-.2-.2-.5-.3-.7-.5-.2-.2-.5-.2-.7 0-.2.2-.3.5-.6.6-.2 0-.4 0-.5-.1-1-.4-1.7-1.2-2-2.2-.1-.1-.1-.3 0-.4 0-.1.1-.1.2-.2l.2-.2c.3-.2.4-.6.2-.9-.3-.5-.6-.9-1-1.4-.4-.1-.6-.2-.8 0-.3.1-.6.3-.8.6-.3.3-.4.6-.3 1 .2.4.3.8.5 1.2.4.8.9 1.5 1.4 2.2 1.1 1.1 2.3 2 3.8 2.5.1.1.3.1.4.1.1 0 .3-.1.4-.1.4-.2.7-.6.9-1 .2-.2.2-.5 0-.7zm-3.4-6.3h-.1c-.1 0-.2.1-.2.2 0 .2.2.2.3.2s.4 0 .6.1c1.4.3 2.5 1.4 2.7 2.8 0 .3 0 .5.1.8s.1.3.2.3.2-.1.2-.2c0-.3 0-.6-.1-1-.3-1.9-1.9-3.2-3.7-3.2zm2.4 3.6v.2c0 .1.2.2.3.1.1 0 .1-.1.1-.1v-.5c-.1-.8-.6-1.6-1.4-1.9-.4-.2-.8-.3-1.2-.3-.1 0-.2.1-.2.2s.1.2.2.2l.4.1c.2 0 .5.1.7.2.4.2.7.5.9.8.1.3.2.7.2 1zm-.6-.1v-.2c0-.7-.6-1.3-1.3-1.3-.1 0-.2.1-.2.2s0 .2.2.2c.1 0 .2 0 .4.1.1 0 .2.1.2.1.2.1.3.3.3.5v.3c0 .1.1.2.2.2.1.1.2 0 .2-.1z"/>
</symbol><symbol id="icon-whatsapp" viewBox="0 0 28.9 28.9">
    <path d="M28.9 6.5v15.9c0 3.6-2.9 6.5-6.5 6.5H6.5C2.9 28.9 0 26 0 22.4V6.5C0 2.9 2.9 0 6.5 0h15.9c3.6 0 6.5 2.9 6.5 6.5zM10.7 20.9h.4c2.1 1.1 4.6 1 6.7-.1 3.6-1.9 4.9-6.3 3-9.9S14.6 6 11 7.9s-4.9 6.3-3 9.9v.4c-.2.9-.5 1.8-.7 2.7l-.2.9c.4-.1 1.7-.4 3.6-.9zm-1.5-2.4c.1-.4.1-.8-.1-1.2-.3-.6-.6-1.3-.7-2-.5-3.3 1.8-6.5 5.1-7s6.5 1.8 7 5.1-1.8 6.5-5.1 7c-1.4.2-2.8 0-4.1-.8-.1-.1-.3-.1-.5-.1-.7.2-1.3.4-2.1.5.3-.5.4-1 .5-1.5zm7.5-.6c.9 0 1.6-.8 1.5-1.7 0-.2-.1-.2-1.6-.9-.4-.1-.4.1-1 .8-.1.1-.3.2-.4.1-1.1-.4-2-1.2-2.5-2.2-.1-.1-.1-.3 0-.4.4-.4.6-.7.4-.9-.2-.5-.4-1-.6-1.4 0-.1-.1-.2-.2-.2-.3-.1-.7-.1-.9.1-.8.7-.9 1.9-.3 2.8 1.6 2.7 3.8 3.8 5.3 3.9h.3z"/>
</symbol></svg>