<?xml version="1.0" encoding="UTF-8"?><!DOCTYPE svg PUBLIC "-//W3C//DTD SVG 1.1//EN" "http://www.w3.org/Graphics/SVG/1.1/DTD/svg11.dtd"><svg xmlns="http://www.w3.org/2000/svg"><defs>
        <style>
            .cls-2{fill:#fff}
        </style>
    
        <style>
            .cls-2{fill:#fff;fill-rule:evenodd}
        </style>
    </defs><symbol id="icon-back" viewBox="0 0 26 26">
    <g>
        <path d="M.046 24.418l2.084 2.084 10.837-10.836 10.836 10.836 2.084-2.084-12.92-12.92z"/>
        <path d="M.046 13.418l2.084 2.084L12.967 4.666l10.836 10.836 2.084-2.084L12.967.498z"/>
    </g>
</symbol><symbol id="icon-messenger" viewBox="0 0 28.87 28.87">
    <g data-name="Layer 2">
        <g data-name="Layer 1">
            <rect height="28.87" rx="6.48" ry="6.48" width="28.87"/>
            <path d="M14.44 6.44a7.7 7.7 0 0 0-8 7.41 7.21 7.21 0 0 0 3 5.77v2.82l2.71-1.5a8.47 8.47 0 0 0 2.28.31 7.7 7.7 0 0 0 8-7.41 7.7 7.7 0 0 0-7.99-7.4zm.79 10l-2-2.17-4 2.17 4.35-4.64 2.07 2.17 3.9-2.17z" data-name="Facebook Messenger"/>
        </g>
    </g>
</symbol><symbol id="icon-phone" viewBox="0 0 1792 1792">
    <path d="M1600 1240q0 27-10 70.5t-21 68.5q-21 50-122 106-94 51-186 51-27 0-52.5-3.5T1151 1520t-47.5-14.5-55.5-20.5-49-18q-98-35-175-83-128-79-264.5-215.5T344 904q-48-77-83-175-3-9-18-49t-20.5-55.5T208 577t-12.5-57.5T192 467q0-92 51-186 56-101 106-122 25-11 68.5-21t70.5-10q14 0 21 3 18 6 53 76 11 19 30 54t35 63.5 31 53.5q3 4 17.5 25t21.5 35.5 7 28.5q0 20-28.5 50t-62 55-62 53-28.5 46q0 9 5 22.5t8.5 20.5 14 24 11.5 19q76 137 174 235t235 174q2 1 19 11.5t24 14 20.5 8.5 22.5 5q18 0 46-28.5t53-62 55-62 50-28.5q14 0 28.5 7t35.5 21.5 25 17.5q25 15 53.5 31t63.5 35 54 30q70 35 76 53 3 7 3 21z"/>
</symbol><symbol id="icon-play" viewBox="0 0 13 14">
    <path d="M.5 0v14l11-7-11-7z" fill-rule="evenodd"/>
</symbol><symbol id="icon-refresh" viewBox="0 0 28.539 29.123">
    <path d="M7.63 7.938c3.215-3.215 8.132-3.674 11.847-1.402-1.259 1.246-2.711 2.702-2.711 2.702-1.016 1.219.125 1.922.705 1.904l6.789-.002c.358 0 .651.002.651.002h1.972a.654.654 0 0 0 .652-.653V1.154c.042-.854-.896-1.682-1.864-.729 0 0-1.602 1.561-2.708 2.657C17.305-1.051 9.331-.583 4.22 4.528 1.238 7.51-.153 11.466.014 15.373h4.83c-.171-2.67.745-5.394 2.786-7.435z"/>
    <path d="M23.695 13.75c.171 2.67-.745 5.394-2.786 7.435-3.216 3.215-8.131 3.674-11.846 1.402 1.258-1.246 2.71-2.702 2.71-2.702 1.016-1.219-.125-1.922-.705-1.903l-6.789.002c-.358 0-.651-.002-.651-.002H1.654a.654.654 0 0 0-.652.652v9.335c-.041.853.896 1.681 1.865.728 0 0 1.601-1.561 2.708-2.656 5.66 4.134 13.633 3.666 18.743-1.445 2.981-2.982 4.373-6.938 4.207-10.845h-4.83z"/>
</symbol><symbol id="icon-telegram" viewBox="0 0 512 512">
    <path d="M512 397.1c0 63.5-51.5 114.9-114.9 114.9H114.9C51.5 512 0 460.5 0 397.1V114.9C0 51.5 51.5 0 114.9 0h282.2C460.5 0 512 51.5 512 114.9v282.2z"/>
    <path d="M383.1 134.1L116.3 238c-8.6 3.4-8.1 15.8.8 18.4l67.8 20 25.3 80.3c2.6 8.4 13.3 10.9 19.4 4.6l35.1-35.8 68.8 50.5c8.4 6.2 20.4 1.6 22.5-8.6l45.5-217.8c2.3-10.6-8.2-19.5-18.4-15.5zm-33.4 48.3L225.8 292c-1.2 1.1-2 2.6-2.2 4.2l-4.8 42.4c-.2 1.4-2.1 1.6-2.5.2l-19.6-63.3c-.9-2.9.3-6 2.9-7.6l146.3-90.8c3.3-1.9 6.8 2.7 3.8 5.3z"/>
</symbol><symbol id="icon-viber" viewBox="0 0 28.87 28.87">
    
    <g data-name="Layer 2" id="Layer_2">
        <g data-name="Layer 1" id="Layer_1-2">
            <rect height="28.87" rx="6.48" ry="6.48" width="28.87"/>
            <path class="cls-2" d="M21.83 10.28a5.34 5.34 0 0 0-3.6-3.47 20 20 0 0 0-7.54 0A5.34 5.34 0 0 0 7 10.26a14.75 14.75 0 0 0 0 6.35 5.38 5.38 0 0 0 3.4 3.42v1.69a.68.68 0 0 0 1.17.47l1.71-1.77h1.11a20.09 20.09 0 0 0 3.77-.36 5.34 5.34 0 0 0 3.6-3.47 14.75 14.75 0 0 0 .07-6.31zm-1.35 6a4 4 0 0 1-2.54 2.44 18.66 18.66 0 0 1-4 .32.09.09 0 0 0-.07 0l-1.26 1.36-1.33 1.36a.16.16 0 0 1-.27-.11v-2.79a.1.1 0 0 0-.08-.09 4 4 0 0 1-2.54-2.44 13.38 13.38 0 0 1 0-5.74 4 4 0 0 1 2.54-2.44 18.64 18.64 0 0 1 7 0 4 4 0 0 1 2.54 2.44 13.37 13.37 0 0 1 .01 5.74z"/>
            <path class="cls-2" d="M17.82 15.84a7.84 7.84 0 0 0-.65-.49c-.23-.16-.45-.32-.69-.47a.61.61 0 0 0-.73 0c-.22.18-.33.53-.64.57a1 1 0 0 1-.52-.13 3.62 3.62 0 0 1-2-2.25.45.45 0 0 1 0-.4.69.69 0 0 1 .16-.17l.21-.16a.65.65 0 0 0 .18-.88 8.08 8.08 0 0 0-1-1.36.5.5 0 0 0-.63-.15 2.34 2.34 0 0 0-.78.59 1 1 0 0 0-.3 1c.16.39.32.78.5 1.16a9.85 9.85 0 0 0 1.45 2.22 10.06 10.06 0 0 0 3.79 2.54c.14.06.29.09.44.14a2.23 2.23 0 0 0 .4-.13 2.15 2.15 0 0 0 .93-1 .51.51 0 0 0-.12-.63z"/>
            <path class="cls-2" d="M14.44 9.49h-.11a.23.23 0 0 0-.23.26c0 .17.2.17.34.19s.43 0 .63.07a3.35 3.35 0 0 1 2.7 2.8c0 .26.05.53.07.8s.08.26.23.26a.22.22 0 0 0 .21-.26c0-.32 0-.64-.1-1a3.81 3.81 0 0 0-3.74-3.12z"/>
            <path class="cls-2" d="M16.85 13.15a.57.57 0 0 0 0 .18.21.21 0 0 0 .4 0 .87.87 0 0 0 0-.13v-.44a2.48 2.48 0 0 0-1.35-1.93 2.94 2.94 0 0 0-1.23-.32.2.2 0 0 0-.22.2.2.2 0 0 0 .19.23L15 11a2.56 2.56 0 0 1 .71.22 2.12 2.12 0 0 1 .89.83 2.27 2.27 0 0 1 .25 1.1z"/>
            <path class="cls-2" d="M16.29 13a.59.59 0 0 0 0-.18 1.29 1.29 0 0 0-1.29-1.3.23.23 0 0 0-.24.18.21.21 0 0 0 .17.25c.11 0 .23 0 .35.05a.81.81 0 0 1 .25.12.84.84 0 0 1 .31.49 2.34 2.34 0 0 1 0 .3.23.23 0 0 0 .24.23.19.19 0 0 0 .21-.14z"/>
        </g>
    </g>
</symbol><symbol id="icon-whatsapp" viewBox="0 0 28.87 28.87">
    
    <g data-name="Layer 2" id="Layer_2">
        <g data-name="Layer 1" id="Layer_1-2">
            <rect height="28.87" rx="6.48" ry="6.48" width="28.87"/>
            <path class="cls-2" d="M7.09 21.82l.23-.87c.24-.89.49-1.77.72-2.66a.65.65 0 0 0 0-.43 7.32 7.32 0 1 1 3.16 3.08.73.73 0 0 0-.45 0c-1.98.44-3.26.8-3.66.88zm1.71-1.68c.73-.19 1.4-.36 2.07-.54a.6.6 0 0 1 .5.07 6 6 0 0 0 4.05.77 6.12 6.12 0 1 0-6.31-3.09 1.28 1.28 0 0 1 .14 1.16c-.18.49-.25 1.04-.45 1.63z"/>
            <path class="cls-2" d="M16.37 17.89c-1.43-.05-3.71-1.18-5.27-3.89a2.2 2.2 0 0 1 .34-2.81 1 1 0 0 1 .94-.14c.08 0 .16.13.2.22.21.47.41.95.59 1.43.1.26-.08.5-.45.92a.32.32 0 0 0 0 .42 5 5 0 0 0 2.54 2.18.3.3 0 0 0 .39-.1c.58-.71.64-.92 1-.78 1.48.71 1.59.74 1.6.9a1.61 1.61 0 0 1-1.88 1.65z"/>
        </g>
    </g>
</symbol></svg>